<svg width="63" height="51" viewBox="0 0 63 51" fill="none" xmlns="http://www.w3.org/2000/svg">
<path d="M32.5312 0.542969L46.2031 9.625H56.75C60.168 9.625 63 12.457 63 15.875V44C63 47.5156 60.168 50.25 56.75 50.25H38H34.875H28.625H25.5H6.75C3.23438 50.25 0.5 47.5156 0.5 44V15.875C0.5 12.457 3.23438 9.625 6.75 9.625H17.1992L30.8711 0.542969C31.3594 0.25 32.043 0.25 32.5312 0.542969ZM38 37.75V47.125H56.75C58.4102 47.125 59.875 45.7578 59.875 44V15.875C59.875 14.2148 58.4102 12.75 56.75 12.75H45.8125C45.4219 12.75 45.1289 12.75 44.9336 12.5547L31.75 3.76562L18.4688 12.5547C18.2734 12.75 17.9805 12.75 17.6875 12.75H6.75C4.99219 12.75 3.625 14.2148 3.625 15.875V44C3.625 45.7578 4.99219 47.125 6.75 47.125H25.5V37.75C25.5 34.332 28.2344 31.5 31.75 31.5C35.168 31.5 38 34.332 38 37.75ZM34.875 47.125V37.75C34.875 36.0898 33.4102 34.625 31.75 34.625C29.9922 34.625 28.625 36.0898 28.625 37.75V47.125H34.875ZM9.875 19C9.875 17.3398 11.2422 15.875 13 15.875H16.125C17.7852 15.875 19.25 17.3398 19.25 19V25.25C19.25 27.0078 17.7852 28.375 16.125 28.375H13C11.2422 28.375 9.875 27.0078 9.875 25.25V19ZM16.125 19H13V25.25H16.125V19ZM47.375 15.875H50.5C52.1602 15.875 53.625 17.3398 53.625 19V25.25C53.625 27.0078 52.1602 28.375 50.5 28.375H47.375C45.6172 28.375 44.25 27.0078 44.25 25.25V19C44.25 17.3398 45.6172 15.875 47.375 15.875ZM47.375 19V25.25H50.5V19H47.375ZM9.875 34.625C9.875 32.9648 11.2422 31.5 13 31.5H16.125C17.7852 31.5 19.25 32.9648 19.25 34.625V40.875C19.25 42.6328 17.7852 44 16.125 44H13C11.2422 44 9.875 42.6328 9.875 40.875V34.625ZM16.125 34.625H13V40.875H16.125V34.625ZM47.375 31.5H50.5C52.1602 31.5 53.625 32.9648 53.625 34.625V40.875C53.625 42.6328 52.1602 44 50.5 44H47.375C45.6172 44 44.25 42.6328 44.25 40.875V34.625C44.25 32.9648 45.6172 31.5 47.375 31.5ZM47.375 34.625V40.875H50.5V34.625H47.375ZM31.75 12.75C29.5039 12.75 27.4531 14.0195 26.2812 15.875C25.207 17.8281 25.207 20.2695 26.2812 22.125C27.4531 24.0781 29.5039 25.25 31.75 25.25C33.8984 25.25 35.9492 24.0781 37.1211 22.125C38.1953 20.2695 38.1953 17.8281 37.1211 15.875C35.9492 14.0195 33.8984 12.75 31.75 12.75ZM31.75 28.375C28.332 28.375 25.3047 26.6172 23.5469 23.6875C21.8867 20.8555 21.8867 17.2422 23.5469 14.3125C25.3047 11.4805 28.332 9.625 31.75 9.625C35.0703 9.625 38.0977 11.4805 39.8555 14.3125C41.5156 17.2422 41.5156 20.8555 39.8555 23.6875C38.0977 26.6172 35.0703 28.375 31.75 28.375ZM33.3125 15.875V17.4375H34.0938C34.875 17.4375 35.6562 18.2188 35.6562 19C35.6562 19.8789 34.875 20.5625 34.0938 20.5625H31.75C30.8711 20.5625 30.1875 19.8789 30.1875 19V15.875C30.1875 15.0938 30.8711 14.3125 31.75 14.3125C32.5312 14.3125 33.3125 15.0938 33.3125 15.875Z" fill="#35BF9B"/>
</svg>
