<svg width="50" height="51" viewBox="0 0 50 51" fill="none" xmlns="http://www.w3.org/2000/svg">
<path d="M0 1.8125C0 1.03125 0.683594 0.25 1.5625 0.25H48.4375C49.2188 0.25 50 1.03125 50 1.8125C50 2.69141 49.2188 3.375 48.4375 3.375H1.5625C0.683594 3.375 0 2.69141 0 1.8125ZM6.25 12.75V19H12.5V12.75H6.25ZM3.125 12.75C3.125 11.0898 4.49219 9.625 6.25 9.625H12.5C14.1602 9.625 15.625 11.0898 15.625 12.75V19C15.625 20.7578 14.1602 22.125 12.5 22.125H6.25C4.49219 22.125 3.125 20.7578 3.125 19V12.75ZM6.25 40.875V47.125H12.5V40.875H6.25ZM3.125 40.875C3.125 39.2148 4.49219 37.75 6.25 37.75H12.5C14.1602 37.75 15.625 39.2148 15.625 40.875V47.125C15.625 48.8828 14.1602 50.25 12.5 50.25H6.25C4.49219 50.25 3.125 48.8828 3.125 47.125V40.875ZM28.125 12.75H21.875V19H28.125V12.75ZM21.875 9.625H28.125C29.7852 9.625 31.25 11.0898 31.25 12.75V19C31.25 20.7578 29.7852 22.125 28.125 22.125H21.875C20.1172 22.125 18.75 20.7578 18.75 19V12.75C18.75 11.0898 20.1172 9.625 21.875 9.625ZM21.875 40.875V47.125H28.125V40.875H21.875ZM18.75 40.875C18.75 39.2148 20.1172 37.75 21.875 37.75H28.125C29.7852 37.75 31.25 39.2148 31.25 40.875V47.125C31.25 48.8828 29.7852 50.25 28.125 50.25H21.875C20.1172 50.25 18.75 48.8828 18.75 47.125V40.875ZM43.75 12.75H37.5V19H43.75V12.75ZM37.5 9.625H43.75C45.4102 9.625 46.875 11.0898 46.875 12.75V19C46.875 20.7578 45.4102 22.125 43.75 22.125H37.5C35.7422 22.125 34.375 20.7578 34.375 19V12.75C34.375 11.0898 35.7422 9.625 37.5 9.625ZM37.5 40.875V47.125H43.75V40.875H37.5ZM34.375 40.875C34.375 39.2148 35.7422 37.75 37.5 37.75H43.75C45.4102 37.75 46.875 39.2148 46.875 40.875V47.125C46.875 48.8828 45.4102 50.25 43.75 50.25H37.5C35.7422 50.25 34.375 48.8828 34.375 47.125V40.875ZM1.5625 28.375H48.4375C49.2188 28.375 50 29.1562 50 29.9375C50 30.8164 49.2188 31.5 48.4375 31.5H1.5625C0.683594 31.5 0 30.8164 0 29.9375C0 29.1562 0.683594 28.375 1.5625 28.375Z" fill="#40B7E6"/>
</svg>
