<svg width="63" height="51" viewBox="0 0 63 51" fill="none" xmlns="http://www.w3.org/2000/svg">
<path d="M53.125 3.375H9.375C7.61719 3.375 6.25 4.83984 6.25 6.5V22.7109C5.07812 23.1016 4.00391 23.7852 3.125 24.5664V6.5C3.125 3.08203 5.85938 0.25 9.375 0.25H53.125C56.543 0.25 59.375 3.08203 59.375 6.5V24.5664C58.3984 23.7852 57.3242 23.1016 56.25 22.7109V6.5C56.25 4.83984 54.7852 3.375 53.125 3.375ZM9.375 34.625C11.0352 34.625 12.5 33.2578 12.5 31.5C12.5 29.8398 11.0352 28.375 9.375 28.375C7.61719 28.375 6.25 29.8398 6.25 31.5C6.25 33.2578 7.61719 34.625 9.375 34.625ZM9.375 25.25C11.5234 25.25 13.5742 26.5195 14.7461 28.375C15.8203 30.3281 15.8203 32.7695 14.7461 34.625C13.5742 36.5781 11.5234 37.75 9.375 37.75C7.12891 37.75 5.07812 36.5781 3.90625 34.625C2.83203 32.7695 2.83203 30.3281 3.90625 28.375C5.07812 26.5195 7.12891 25.25 9.375 25.25ZM31.25 34.625C32.9102 34.625 34.375 33.2578 34.375 31.5C34.375 29.8398 32.9102 28.375 31.25 28.375C29.4922 28.375 28.125 29.8398 28.125 31.5C28.125 33.2578 29.4922 34.625 31.25 34.625ZM31.25 25.25C33.3984 25.25 35.4492 26.5195 36.6211 28.375C37.6953 30.3281 37.6953 32.7695 36.6211 34.625C35.4492 36.5781 33.3984 37.75 31.25 37.75C29.0039 37.75 26.9531 36.5781 25.7812 34.625C24.707 32.7695 24.707 30.3281 25.7812 28.375C26.9531 26.5195 29.0039 25.25 31.25 25.25ZM56.25 31.5C56.25 29.8398 54.7852 28.375 53.125 28.375C51.3672 28.375 50 29.8398 50 31.5C50 33.2578 51.3672 34.625 53.125 34.625C54.7852 34.625 56.25 33.2578 56.25 31.5ZM46.875 31.5C46.875 29.3516 48.0469 27.3008 50 26.1289C51.8555 25.0547 54.2969 25.0547 56.25 26.1289C58.1055 27.3008 59.375 29.3516 59.375 31.5C59.375 33.7461 58.1055 35.7969 56.25 36.9688C54.2969 38.043 51.8555 38.043 50 36.9688C48.0469 35.7969 46.875 33.7461 46.875 31.5ZM3.125 47.125V48.6875C3.125 49.5664 2.34375 50.25 1.5625 50.25C0.683594 50.25 0 49.5664 0 48.6875V47.125C0 43.707 2.73438 40.875 6.25 40.875H12.5C15.918 40.875 18.75 43.707 18.75 47.125V48.6875C18.75 49.5664 17.9688 50.25 17.1875 50.25C16.3086 50.25 15.625 49.5664 15.625 48.6875V47.125C15.625 45.4648 14.1602 44 12.5 44H6.25C4.49219 44 3.125 45.4648 3.125 47.125ZM28.125 44C26.3672 44 25 45.4648 25 47.125V48.6875C25 49.5664 24.2188 50.25 23.4375 50.25C22.5586 50.25 21.875 49.5664 21.875 48.6875V47.125C21.875 43.707 24.6094 40.875 28.125 40.875H34.375C37.793 40.875 40.625 43.707 40.625 47.125V48.6875C40.625 49.5664 39.8438 50.25 39.0625 50.25C38.1836 50.25 37.5 49.5664 37.5 48.6875V47.125C37.5 45.4648 36.0352 44 34.375 44H28.125ZM46.875 47.125V48.6875C46.875 49.5664 46.0938 50.25 45.3125 50.25C44.4336 50.25 43.75 49.5664 43.75 48.6875V47.125C43.75 43.707 46.4844 40.875 50 40.875H56.25C59.668 40.875 62.5 43.707 62.5 47.125V48.6875C62.5 49.5664 61.7188 50.25 60.9375 50.25C60.0586 50.25 59.375 49.5664 59.375 48.6875V47.125C59.375 45.4648 57.9102 44 56.25 44H50C48.2422 44 46.875 45.4648 46.875 47.125Z" fill="#2B7A99"/>
</svg>
