<svg width="63" height="51" viewBox="0 0 63 51" fill="#CC3956" xmlns="http://www.w3.org/2000/svg">
<path  d="M7.8125 0.25H54.6875C58.9844 0.25 62.5 3.76562 62.5 8.0625V42.4375C62.5 46.832 58.9844 50.25 54.6875 50.25H7.8125C3.41797 50.25 0 46.832 0 42.4375V8.0625C0 3.76562 3.41797 0.25 7.8125 0.25ZM3.125 8.0625V42.4375C3.125 45.0742 5.17578 47.125 7.8125 47.125H54.6875C57.2266 47.125 59.375 45.0742 59.375 42.4375V8.0625C59.375 5.52344 57.2266 3.375 54.6875 3.375H7.8125C5.17578 3.375 3.125 5.52344 3.125 8.0625ZM28.125 19C28.125 20.7578 29.4922 22.125 31.25 22.125C32.9102 22.125 34.375 20.7578 34.375 19C34.375 17.3398 32.9102 15.875 31.25 15.875C29.4922 15.875 28.125 17.3398 28.125 19ZM37.5 19C37.5 21.2461 36.2305 23.2969 34.375 24.4688C32.4219 25.543 29.9805 25.543 28.125 24.4688C26.1719 23.2969 25 21.2461 25 19C25 16.8516 26.1719 14.8008 28.125 13.6289C29.9805 12.5547 32.4219 12.5547 34.375 13.6289C36.2305 14.8008 37.5 16.8516 37.5 19ZM35.1562 31.5H27.3438C25.3906 31.5 23.8281 32.8672 23.4375 34.625H38.9648C38.5742 32.8672 37.0117 31.5 35.1562 31.5ZM27.3438 28.375H31.25H35.1562C38.9648 28.375 42.1875 31.5977 42.1875 35.4062C42.1875 36.7734 41.1133 37.75 39.8438 37.75H22.6562C21.2891 37.75 20.3125 36.7734 20.3125 35.4062C20.3125 31.5977 23.4375 28.375 27.3438 28.375ZM15.5273 17.4375C15.5273 18.3164 16.2109 19 17.0898 19C17.9688 19 18.6523 18.3164 18.6523 17.4375C18.6523 16.6562 17.9688 15.875 17.0898 15.875C16.2109 15.875 15.5273 16.6562 15.5273 17.4375ZM21.7773 17.4375C21.7773 19.1953 20.8984 20.6602 19.4336 21.5391C17.9688 22.418 16.2109 22.418 14.7461 21.5391C13.2812 20.6602 12.4023 19.1953 12.4023 17.4375C12.4023 15.7773 13.2812 14.3125 14.7461 13.4336C16.2109 12.5547 17.9688 12.5547 19.4336 13.4336C20.8984 14.3125 21.7773 15.7773 21.7773 17.4375ZM12.5 30.7188V31.5C12.5 32.3789 11.7188 33.0625 10.9375 33.0625C10.0586 33.0625 9.375 32.3789 9.375 31.5V30.7188C9.375 27.7891 11.8164 25.25 14.8438 25.25H20.3125C21.0938 25.25 21.875 26.0312 21.875 26.8125C21.875 27.6914 21.0938 28.375 20.3125 28.375H14.8438C13.4766 28.375 12.5 29.4492 12.5 30.7188ZM45.3125 15.875C44.4336 15.875 43.75 16.6562 43.75 17.4375C43.75 18.3164 44.4336 19 45.3125 19C46.1914 19 46.875 18.3164 46.875 17.4375C46.875 16.6562 46.1914 15.875 45.3125 15.875ZM45.3125 22.125C43.6523 22.125 42.0898 21.2461 41.2109 19.7812C40.4297 18.4141 40.4297 16.5586 41.2109 15.0938C42.0898 13.7266 43.6523 12.75 45.3125 12.75C46.9727 12.75 48.5352 13.7266 49.3164 15.0938C50.1953 16.5586 50.1953 18.4141 49.3164 19.7812C48.5352 21.2461 46.9727 22.125 45.3125 22.125ZM47.6562 28.375H42.1875C41.3086 28.375 40.625 27.6914 40.625 26.8125C40.625 26.0312 41.3086 25.25 42.1875 25.25H47.6562C50.5859 25.25 53.125 27.7891 53.125 30.7188V31.5C53.125 32.3789 52.3438 33.0625 51.5625 33.0625C50.6836 33.0625 50 32.3789 50 31.5V30.7188C50 29.4492 48.9258 28.375 47.6562 28.375Z" fill="#CC3956"/>
</svg>
